<?xml version="1.0" standalone="no"?>
<!DOCTYPE svg PUBLIC "-//W3C//DTD SVG 20010904//EN"
 "http://www.w3.org/TR/2001/REC-SVG-20010904/DTD/svg10.dtd">
<svg version="1.0" xmlns="http://www.w3.org/2000/svg"
 width="500.000000pt" height="500.000000pt" viewBox="0 0 500.000000 500.000000"
 preserveAspectRatio="xMidYMid meet">

<g transform="translate(0.000000,500.000000) scale(0.100000,-0.100000)"
fill="#000000" stroke="none">
<path d="M0 2500 l0 -2500 2500 0 2500 0 0 2500 0 2500 -2500 0 -2500 0 0
-2500z m1705 1219 c62 -29 816 -805 829 -853 12 -43 -9 -86 -52 -108 -62 -31
-75 -21 -366 279 -473 488 -499 513 -528 513 -20 0 -90 -66 -349 -332 -178
-183 -341 -352 -362 -376 l-37 -42 0 -476 c0 -512 0 -516 53 -546 17 -10 173
-14 690 -18 l669 -5 29 -33 c40 -44 40 -93 0 -133 l-29 -29 -669 0 c-574 0
-677 2 -721 15 -73 22 -150 88 -187 160 l-30 59 0 525 0 526 28 52 c38 72 744
798 802 824 58 27 171 25 230 -2z m415 -799 l0 -110 -305 -363 -306 -362 318
-5 318 -5 3 -137 3 -138 -551 0 -550 0 0 113 1 112 304 360 303 360 -299 3
-299 2 0 140 0 140 530 0 530 0 0 -110z m258 -260 c125 -32 212 -152 212 -292
l0 -48 -216 0 -215 0 17 -30 c36 -61 139 -79 222 -39 l44 22 54 -54 55 -54
-28 -23 c-62 -52 -111 -67 -223 -67 -94 0 -111 3 -166 28 -118 55 -178 147
-178 274 1 210 195 340 422 283z m714 -6 c62 -20 135 -86 164 -149 18 -37 24
-68 24 -117 l0 -68 -210 0 c-115 0 -210 -3 -210 -8 0 -16 33 -53 60 -67 45
-23 128 -19 177 9 l42 24 50 -57 50 -58 -22 -21 c-38 -36 -115 -63 -191 -69
-155 -12 -279 46 -342 159 -26 48 -29 62 -29 143 0 107 17 147 90 214 91 84
213 107 347 65z m747 10 c45 -8 108 -59 133 -106 22 -40 23 -57 26 -260 l3
-218 -100 0 -101 0 0 148 c-1 230 -17 272 -101 272 -51 0 -97 -40 -109 -95 -5
-22 -10 -104 -10 -182 l0 -143 -100 0 -100 0 0 295 0 295 95 0 95 0 0 -30 c0
-30 13 -40 25 -20 11 18 66 42 114 50 44 8 67 7 130 -6z m-191 -696 c19 -16
15 -66 -7 -78 -51 -27 -109 6 -97 55 10 41 65 53 104 23z m-788 -213 l0 -195
-55 0 -55 0 0 195 0 195 55 0 55 0 0 -195z m-263 103 c17 -40 54 -124 82 -185
l50 -113 -55 0 c-53 0 -55 1 -70 35 l-14 35 -79 0 -79 0 -12 -35 c-11 -34 -13
-35 -66 -35 -30 0 -54 2 -54 4 0 2 29 68 64 147 35 79 71 161 79 182 16 36 17
37 69 37 l54 0 31 -72z m563 -41 c0 -26 -13 -48 -59 -103 l-59 -69 64 -3 64
-3 0 -39 0 -40 -135 0 -135 0 0 28 c1 19 20 50 65 102 l65 75 -60 3 -60 3 0
39 0 40 125 0 125 0 0 -33z m270 14 c41 -22 68 -63 72 -111 l3 -35 -103 -3
c-109 -3 -123 -11 -69 -42 22 -12 31 -12 62 -1 34 12 38 11 61 -10 31 -29 30
-35 -7 -54 -42 -22 -131 -21 -177 2 -100 51 -101 201 -2 253 45 25 116 25 160
1z m220 -126 l0 -145 -50 0 -50 0 0 145 0 145 50 0 50 0 0 -145z m160 130 c0
-14 3 -14 30 0 16 8 48 15 71 15 33 0 47 -6 75 -34 l34 -34 0 -111 0 -111 -50
0 -50 0 0 88 c0 48 -4 93 -9 101 -13 20 -62 17 -78 -5 -8 -11 -13 -48 -13
-101 l0 -83 -50 0 -50 0 0 145 0 145 45 0 c34 0 45 -4 45 -15z"/>
<path d="M2223 2516 c-26 -12 -63 -59 -63 -81 0 -3 52 -5 115 -5 129 0 137 5
88 60 -33 37 -91 48 -140 26z"/>
<path d="M2925 2520 c-24 -9 -59 -48 -68 -72 -6 -17 4 -18 113 -18 66 0 120 2
120 5 0 4 -7 20 -16 36 -24 47 -97 71 -149 49z"/>
<path d="M2498 1789 c-34 -79 -34 -79 16 -79 l45 0 -18 43 c-10 23 -20 49 -23
57 -3 10 -10 3 -20 -21z"/>
<path d="M3318 1769 c-10 -5 -18 -17 -18 -24 0 -11 14 -15 55 -15 58 0 66 7
37 33 -21 19 -49 21 -74 6z"/>
</g>
</svg>
